solid OpenSCAD_Model
  facet normal 0 -1 0
    outer loop
      vertex 0 0 0
      vertex 10 0 34
      vertex 0 0 34
    endloop
  endfacet
  facet normal 0 -1 0
    outer loop
      vertex 0 0 0
      vertex 76 0 37
      vertex 10 0 34
    endloop
  endfacet
  facet normal 0 -1 0
    outer loop
      vertex 76 0 37
      vertex 10 0 37
      vertex 10 0 34
    endloop
  endfacet
  facet normal 0 0 1
    outer loop
      vertex 74 2 37
      vertex 10 2 37
      vertex 10 0 37
    endloop
  endfacet
  facet normal -1 0 0
    outer loop
      vertex 0 0 0
      vertex 0 0 34
      vertex 0 80 34
    endloop
  endfacet
  facet normal 0 0 -1
    outer loop
      vertex 0 0 0
      vertex 0 80 0
      vertex 76 80 0
    endloop
  endfacet
  facet normal -1 0 0
    outer loop
      vertex 0 0 0
      vertex 0 80 34
      vertex 0 80 0
    endloop
  endfacet
  facet normal 0 1 0
    outer loop
      vertex 0 80 0
      vertex 10 80 34
      vertex 76 80 0
    endloop
  endfacet
  facet normal 0 1 0
    outer loop
      vertex 0 80 0
      vertex 0 80 34
      vertex 10 80 34
    endloop
  endfacet
  facet normal 0 1 0
    outer loop
      vertex 76 80 37
      vertex 10 80 34
      vertex 10 80 37
    endloop
  endfacet
  facet normal 0 0 1
    outer loop
      vertex 76 80 37
      vertex 10 80 37
      vertex 10 78 37
    endloop
  endfacet
  facet normal 0 -1 0
    outer loop
      vertex 0 0 0
      vertex 76 0 0
      vertex 76 0 37
    endloop
  endfacet
  facet normal 0 0 -1
    outer loop
      vertex 0 0 0
      vertex 76 80 0
      vertex 76 0 0
    endloop
  endfacet
  facet normal 1 0 0
    outer loop
      vertex 76 0 0
      vertex 76 80 0
      vertex 76 0 37
    endloop
  endfacet
  facet normal 0 0 1
    outer loop
      vertex 74 2 37
      vertex 10 0 37
      vertex 76 0 37
    endloop
  endfacet
  facet normal 0 0 1
    outer loop
      vertex 74 2 37
      vertex 76 0 37
      vertex 76 80 37
    endloop
  endfacet
  facet normal 1 0 0
    outer loop
      vertex 76 0 37
      vertex 76 80 0
      vertex 76 80 37
    endloop
  endfacet
  facet normal 0 0 1
    outer loop
      vertex 74 2 37
      vertex 76 80 37
      vertex 74 78 37
    endloop
  endfacet
  facet normal 0 1 0
    outer loop
      vertex 76 80 0
      vertex 10 80 34
      vertex 76 80 37
    endloop
  endfacet
  facet normal 0 0 1
    outer loop
      vertex 74 78 37
      vertex 76 80 37
      vertex 10 78 37
    endloop
  endfacet
  facet normal 0 1 0
    outer loop
      vertex 2 2 2
      vertex 5.300000000000002 2 19.5
      vertex 5.300000000000002 2 2
    endloop
  endfacet
  facet normal 0 1 0
    outer loop
      vertex 6.500000000000002 2 2
      vertex 8.700000000000001 2 19.5
      vertex 8.700000000000001 2 2
    endloop
  endfacet
  facet normal 0 1 0
    outer loop
      vertex 9.9 2 2
      vertex 12.100000000000003 2 19.5
      vertex 12.100000000000003 2 2
    endloop
  endfacet
  facet normal 0 1 0
    outer loop
      vertex 13.300000000000002 2 2
      vertex 15.500000000000002 2 19.5
      vertex 15.500000000000002 2 2
    endloop
  endfacet
  facet normal 0 1 0
    outer loop
      vertex 16.700000000000003 2 2
      vertex 18.900000000000002 2 19.5
      vertex 18.900000000000002 2 2
    endloop
  endfacet
  facet normal 0 1 0
    outer loop
      vertex 20.1 2 2
      vertex 22.300000000000004 2 19.5
      vertex 22.300000000000004 2 2
    endloop
  endfacet
  facet normal 0 1 0
    outer loop
      vertex 23.500000000000004 2 2
      vertex 25.700000000000003 2 19.5
      vertex 25.700000000000003 2 2
    endloop
  endfacet
  facet normal 0 1 0
    outer loop
      vertex 26.900000000000002 2 2
      vertex 29.1 2 19.5
      vertex 29.1 2 2
    endloop
  endfacet
  facet normal 0 1 0
    outer loop
      vertex 30.3 2 2
      vertex 32.5 2 19.5
      vertex 32.5 2 2
    endloop
  endfacet
  facet normal 0 1 0
    outer loop
      vertex 6.500000000000002 2 2
      vertex 6.500000000000002 2 19.5
      vertex 8.700000000000001 2 19.5
    endloop
  endfacet
  facet normal 0 1 0
    outer loop
      vertex 9.9 2 2
      vertex 9.9 2 19.5
      vertex 12.100000000000003 2 19.5
    endloop
  endfacet
  facet normal 0 1 0
    outer loop
      vertex 13.300000000000002 2 2
      vertex 13.300000000000002 2 19.5
      vertex 15.500000000000002 2 19.5
    endloop
  endfacet
  facet normal 0 1 0
    outer loop
      vertex 33.7 2 2
      vertex 37 2 33.6
      vertex 37 2 2
    endloop
  endfacet
  facet normal 0 1 0
    outer loop
      vertex 16.700000000000003 2 2
      vertex 16.700000000000003 2 19.5
      vertex 18.900000000000002 2 19.5
    endloop
  endfacet
  facet normal 0 1 0
    outer loop
      vertex 20.1 2 2
      vertex 20.1 2 19.5
      vertex 22.300000000000004 2 19.5
    endloop
  endfacet
  facet normal 0 1 0
    outer loop
      vertex 23.500000000000004 2 2
      vertex 23.500000000000004 2 19.5
      vertex 25.700000000000003 2 19.5
    endloop
  endfacet
  facet normal 0 1 0
    outer loop
      vertex 26.900000000000002 2 2
      vertex 26.900000000000002 2 19.5
      vertex 29.1 2 19.5
    endloop
  endfacet
  facet normal 0 1 0
    outer loop
      vertex 30.3 2 2
      vertex 30.3 2 19.5
      vertex 32.5 2 19.5
    endloop
  endfacet
  facet normal 0 0 1
    outer loop
      vertex 2 2 2
      vertex 5.300000000000002 2 2
      vertex 2 78 2
    endloop
  endfacet
  facet normal 0 0 1
    outer loop
      vertex 6.500000000000002 2 2
      vertex 8.700000000000001 2 2
      vertex 6.500000000000002 78 2
    endloop
  endfacet
  facet normal 0 0 1
    outer loop
      vertex 9.9 2 2
      vertex 12.100000000000003 2 2
      vertex 9.9 78 2
    endloop
  endfacet
  facet normal 0 0 1
    outer loop
      vertex 13.300000000000002 2 2
      vertex 15.500000000000002 2 2
      vertex 13.300000000000002 78 2
    endloop
  endfacet
  facet normal 0 0 1
    outer loop
      vertex 16.700000000000003 2 2
      vertex 18.900000000000002 2 2
      vertex 16.700000000000003 78 2
    endloop
  endfacet
  facet normal 0 0 1
    outer loop
      vertex 20.1 2 2
      vertex 22.300000000000004 2 2
      vertex 20.1 78 2
    endloop
  endfacet
  facet normal 0 0 1
    outer loop
      vertex 23.500000000000004 2 2
      vertex 25.700000000000003 2 2
      vertex 23.500000000000004 78 2
    endloop
  endfacet
  facet normal 0 0 1
    outer loop
      vertex 26.900000000000002 2 2
      vertex 29.1 2 2
      vertex 26.900000000000002 78 2
    endloop
  endfacet
  facet normal 0 0 1
    outer loop
      vertex 30.3 2 2
      vertex 32.5 2 2
      vertex 30.3 78 2
    endloop
  endfacet
  facet normal 0 0 1
    outer loop
      vertex 33.7 2 2
      vertex 37 2 2
      vertex 33.7 78 2
    endloop
  endfacet
  facet normal 1 0 0
    outer loop
      vertex 2 2 2
      vertex 2 78 2
      vertex 2 2 34
    endloop
  endfacet
  facet normal 0 1 0
    outer loop
      vertex 2 2 2
      vertex 2 2 34
      vertex 5.300000000000002 2 19.5
    endloop
  endfacet
  facet normal 0 1 0
    outer loop
      vertex 5.300000000000002 2 19.5
      vertex 2 2 34
      vertex 6.500000000000002 2 19.5
    endloop
  endfacet
  facet normal 0 1 0
    outer loop
      vertex 6.500000000000002 2 19.5
      vertex 2 2 34
      vertex 8.700000000000001 2 19.5
    endloop
  endfacet
  facet normal 0 1 0
    outer loop
      vertex 8.700000000000001 2 19.5
      vertex 2 2 34
      vertex 9.9 2 19.5
    endloop
  endfacet
  facet normal 0 1 0
    outer loop
      vertex 9.9 2 19.5
      vertex 2 2 34
      vertex 12.100000000000003 2 19.5
    endloop
  endfacet
  facet normal 0 1 0
    outer loop
      vertex 12.100000000000003 2 19.5
      vertex 2 2 34
      vertex 13.300000000000002 2 19.5
    endloop
  endfacet
  facet normal 0 1 0
    outer loop
      vertex 13.300000000000002 2 19.5
      vertex 2 2 34
      vertex 15.500000000000002 2 19.5
    endloop
  endfacet
  facet normal 0 1 0
    outer loop
      vertex 15.500000000000002 2 19.5
      vertex 2 2 34
      vertex 16.700000000000003 2 19.5
    endloop
  endfacet
  facet normal 0 1 0
    outer loop
      vertex 33.7 2 2
      vertex 33.7 2 19.5
      vertex 37 2 33.6
    endloop
  endfacet
  facet normal 0 1 0
    outer loop
      vertex 16.700000000000003 2 19.5
      vertex 37 2 34
      vertex 18.900000000000002 2 19.5
    endloop
  endfacet
  facet normal 0 1 0
    outer loop
      vertex 18.900000000000002 2 19.5
      vertex 37 2 34
      vertex 20.1 2 19.5
    endloop
  endfacet
  facet normal 0 1 0
    outer loop
      vertex 20.1 2 19.5
      vertex 37 2 34
      vertex 22.300000000000004 2 19.5
    endloop
  endfacet
  facet normal 0 1 0
    outer loop
      vertex 22.300000000000004 2 19.5
      vertex 37 2 34
      vertex 23.500000000000004 2 19.5
    endloop
  endfacet
  facet normal 0 1 0
    outer loop
      vertex 23.500000000000004 2 19.5
      vertex 37 2 33.6
      vertex 25.700000000000003 2 19.5
    endloop
  endfacet
  facet normal 0 1 0
    outer loop
      vertex 25.700000000000003 2 19.5
      vertex 37 2 33.6
      vertex 26.900000000000002 2 19.5
    endloop
  endfacet
  facet normal 0 1 0
    outer loop
      vertex 26.900000000000002 2 19.5
      vertex 37 2 33.6
      vertex 29.1 2 19.5
    endloop
  endfacet
  facet normal 0 1 0
    outer loop
      vertex 29.1 2 19.5
      vertex 37 2 33.6
      vertex 30.3 2 19.5
    endloop
  endfacet
  facet normal 0 1 0
    outer loop
      vertex 30.3 2 19.5
      vertex 37 2 33.6
      vertex 32.5 2 19.5
    endloop
  endfacet
  facet normal 0 1 0
    outer loop
      vertex 32.5 2 19.5
      vertex 37 2 33.6
      vertex 33.7 2 19.5
    endloop
  endfacet
  facet normal 0 1 0
    outer loop
      vertex 16.700000000000003 2 19.5
      vertex 2 2 34
      vertex 10 2 34
    endloop
  endfacet
  facet normal 0 1 0
    outer loop
      vertex 16.700000000000003 2 19.5
      vertex 10 2 34
      vertex 37 2 34
    endloop
  endfacet
  facet normal 0 1 0
    outer loop
      vertex 23.500000000000004 2 19.5
      vertex 37 2 34
      vertex 37 2 33.6
    endloop
  endfacet
  facet normal 0 1 0
    outer loop
      vertex 37 2 35.2
      vertex 10 2 35.2
      vertex 10 2 37
    endloop
  endfacet
  facet normal 0 1 0
    outer loop
      vertex 37 2 33.6
      vertex 37 2 34
      vertex 39 2 35.2
    endloop
  endfacet
  facet normal 0 1 0
    outer loop
      vertex 37 2 34
      vertex 37 2 35.2
      vertex 39 2 35.2
    endloop
  endfacet
  facet normal 0 0 1
    outer loop
      vertex 5.300000000000002 2 2
      vertex 5.300000000000002 78 2
      vertex 2 78 2
    endloop
  endfacet
  facet normal 0 0 1
    outer loop
      vertex 8.700000000000001 2 2
      vertex 8.700000000000001 78 2
      vertex 6.500000000000002 78 2
    endloop
  endfacet
  facet normal 0 0 1
    outer loop
      vertex 12.100000000000003 2 2
      vertex 12.100000000000003 78 2
      vertex 9.9 78 2
    endloop
  endfacet
  facet normal 0 0 1
    outer loop
      vertex 15.500000000000002 2 2
      vertex 15.500000000000002 78 2
      vertex 13.300000000000002 78 2
    endloop
  endfacet
  facet normal 0 0 1
    outer loop
      vertex 18.900000000000002 2 2
      vertex 18.900000000000002 78 2
      vertex 16.700000000000003 78 2
    endloop
  endfacet
  facet normal 0 0 1
    outer loop
      vertex 22.300000000000004 2 2
      vertex 22.300000000000004 78 2
      vertex 20.1 78 2
    endloop
  endfacet
  facet normal 0 0 1
    outer loop
      vertex 25.700000000000003 2 2
      vertex 25.700000000000003 78 2
      vertex 23.500000000000004 78 2
    endloop
  endfacet
  facet normal 0 0 1
    outer loop
      vertex 29.1 2 2
      vertex 29.1 78 2
      vertex 26.900000000000002 78 2
    endloop
  endfacet
  facet normal 0 0 1
    outer loop
      vertex 32.5 2 2
      vertex 32.5 78 2
      vertex 30.3 78 2
    endloop
  endfacet
  facet normal 0 0 1
    outer loop
      vertex 37 2 2
      vertex 37 78 2
      vertex 33.7 78 2
    endloop
  endfacet
  facet normal 0 -1 0
    outer loop
      vertex 2 78 2
      vertex 5.300000000000002 78 2
      vertex 5.300000000000002 78 19.5
    endloop
  endfacet
  facet normal 0 -1 0
    outer loop
      vertex 6.500000000000002 78 2
      vertex 8.700000000000001 78 2
      vertex 6.500000000000002 78 19.5
    endloop
  endfacet
  facet normal 0 -1 0
    outer loop
      vertex 9.9 78 2
      vertex 12.100000000000003 78 2
      vertex 9.9 78 19.5
    endloop
  endfacet
  facet normal 0 -1 0
    outer loop
      vertex 13.300000000000002 78 2
      vertex 15.500000000000002 78 2
      vertex 13.300000000000002 78 19.5
    endloop
  endfacet
  facet normal 0 -1 0
    outer loop
      vertex 16.700000000000003 78 2
      vertex 18.900000000000002 78 2
      vertex 16.700000000000003 78 19.5
    endloop
  endfacet
  facet normal 0 -1 0
    outer loop
      vertex 20.1 78 2
      vertex 22.300000000000004 78 2
      vertex 20.1 78 19.5
    endloop
  endfacet
  facet normal 0 -1 0
    outer loop
      vertex 23.500000000000004 78 2
      vertex 25.700000000000003 78 2
      vertex 23.500000000000004 78 19.5
    endloop
  endfacet
  facet normal 0 -1 0
    outer loop
      vertex 26.900000000000002 78 2
      vertex 29.1 78 2
      vertex 26.900000000000002 78 19.5
    endloop
  endfacet
  facet normal 0 -1 0
    outer loop
      vertex 30.3 78 2
      vertex 32.5 78 2
      vertex 30.3 78 19.5
    endloop
  endfacet
  facet normal 0 -1 0
    outer loop
      vertex 33.7 78 2
      vertex 37 78 2
      vertex 33.7 78 19.5
    endloop
  endfacet
  facet normal 0 -1 0
    outer loop
      vertex 8.700000000000001 78 2
      vertex 8.700000000000001 78 19.5
      vertex 6.500000000000002 78 19.5
    endloop
  endfacet
  facet normal 0 -1 0
    outer loop
      vertex 12.100000000000003 78 2
      vertex 12.100000000000003 78 19.5
      vertex 9.9 78 19.5
    endloop
  endfacet
  facet normal 0 -1 0
    outer loop
      vertex 15.500000000000002 78 2
      vertex 15.500000000000002 78 19.5
      vertex 13.300000000000002 78 19.5
    endloop
  endfacet
  facet normal 0 -1 0
    outer loop
      vertex 18.900000000000002 78 2
      vertex 18.900000000000002 78 19.5
      vertex 16.700000000000003 78 19.5
    endloop
  endfacet
  facet normal 0 -1 0
    outer loop
      vertex 22.300000000000004 78 2
      vertex 22.300000000000004 78 19.5
      vertex 20.1 78 19.5
    endloop
  endfacet
  facet normal 0 -1 0
    outer loop
      vertex 25.700000000000003 78 2
      vertex 25.700000000000003 78 19.5
      vertex 23.500000000000004 78 19.5
    endloop
  endfacet
  facet normal 0 -1 0
    outer loop
      vertex 29.1 78 2
      vertex 29.1 78 19.5
      vertex 26.900000000000002 78 19.5
    endloop
  endfacet
  facet normal 0 -1 0
    outer loop
      vertex 32.5 78 2
      vertex 32.5 78 19.5
      vertex 30.3 78 19.5
    endloop
  endfacet
  facet normal 1 0 0
    outer loop
      vertex 2 78 2
      vertex 2 78 34
      vertex 2 2 34
    endloop
  endfacet
  facet normal 0 -1 0
    outer loop
      vertex 2 78 2
      vertex 5.300000000000002 78 19.5
      vertex 2 78 34
    endloop
  endfacet
  facet normal 0 -1 0
    outer loop
      vertex 37 78 2
      vertex 37 78 33.6
      vertex 33.7 78 19.5
    endloop
  endfacet
  facet normal 0 -1 0
    outer loop
      vertex 5.300000000000002 78 19.5
      vertex 6.500000000000002 78 19.5
      vertex 37 78 34
    endloop
  endfacet
  facet normal 0 -1 0
    outer loop
      vertex 6.500000000000002 78 19.5
      vertex 8.700000000000001 78 19.5
      vertex 37 78 34
    endloop
  endfacet
  facet normal 0 -1 0
    outer loop
      vertex 8.700000000000001 78 19.5
      vertex 9.9 78 19.5
      vertex 37 78 34
    endloop
  endfacet
  facet normal 0 -1 0
    outer loop
      vertex 9.9 78 19.5
      vertex 12.100000000000003 78 19.5
      vertex 37 78 34
    endloop
  endfacet
  facet normal 0 -1 0
    outer loop
      vertex 12.100000000000003 78 19.5
      vertex 13.300000000000002 78 19.5
      vertex 37 78 34
    endloop
  endfacet
  facet normal 0 -1 0
    outer loop
      vertex 13.300000000000002 78 19.5
      vertex 15.500000000000002 78 19.5
      vertex 37 78 34
    endloop
  endfacet
  facet normal 0 -1 0
    outer loop
      vertex 15.500000000000002 78 19.5
      vertex 16.700000000000003 78 19.5
      vertex 37 78 34
    endloop
  endfacet
  facet normal 0 -1 0
    outer loop
      vertex 16.700000000000003 78 19.5
      vertex 18.900000000000002 78 19.5
      vertex 37 78 34
    endloop
  endfacet
  facet normal 0 -1 0
    outer loop
      vertex 18.900000000000002 78 19.5
      vertex 20.1 78 19.5
      vertex 37 78 34
    endloop
  endfacet
  facet normal 0 -1 0
    outer loop
      vertex 20.1 78 19.5
      vertex 22.300000000000004 78 19.5
      vertex 37 78 34
    endloop
  endfacet
  facet normal 0 -1 0
    outer loop
      vertex 22.300000000000004 78 19.5
      vertex 23.500000000000004 78 19.5
      vertex 37 78 34
    endloop
  endfacet
  facet normal 0 -1 0
    outer loop
      vertex 23.500000000000004 78 19.5
      vertex 25.700000000000003 78 19.5
      vertex 37 78 34
    endloop
  endfacet
  facet normal 0 -1 0
    outer loop
      vertex 25.700000000000003 78 19.5
      vertex 26.900000000000002 78 19.5
      vertex 37 78 34
    endloop
  endfacet
  facet normal 0 -1 0
    outer loop
      vertex 26.900000000000002 78 19.5
      vertex 29.1 78 19.5
      vertex 37 78 34
    endloop
  endfacet
  facet normal 0 -1 0
    outer loop
      vertex 29.1 78 19.5
      vertex 30.3 78 19.5
      vertex 37 78 34
    endloop
  endfacet
  facet normal 0 -1 0
    outer loop
      vertex 30.3 78 19.5
      vertex 32.5 78 19.5
      vertex 37 78 34
    endloop
  endfacet
  facet normal 0 -1 0
    outer loop
      vertex 32.5 78 19.5
      vertex 33.7 78 19.5
      vertex 37 78 34
    endloop
  endfacet
  facet normal 0 -1 0
    outer loop
      vertex 5.300000000000002 78 19.5
      vertex 10 78 34
      vertex 2 78 34
    endloop
  endfacet
  facet normal 0 -1 0
    outer loop
      vertex 5.300000000000002 78 19.5
      vertex 37 78 34
      vertex 10 78 34
    endloop
  endfacet
  facet normal 0 -1 0
    outer loop
      vertex 33.7 78 19.5
      vertex 37 78 33.6
      vertex 37 78 34
    endloop
  endfacet
  facet normal 0 -1 0
    outer loop
      vertex 37 78 35.2
      vertex 10 78 37
      vertex 10 78 35.2
    endloop
  endfacet
  facet normal 0 -1 0
    outer loop
      vertex 37 78 33.6
      vertex 39 78 33.6
      vertex 37 78 34
    endloop
  endfacet
  facet normal 0 -1 0
    outer loop
      vertex 37 78 34
      vertex 39 78 34
      vertex 37 78 35.2
    endloop
  endfacet
  facet normal 0 -1 0
    outer loop
      vertex 39 78 35.2
      vertex 10 78 37
      vertex 37 78 35.2
    endloop
  endfacet
  facet normal 0 1 0
    outer loop
      vertex 39 2 2
      vertex 39 2 33.6
      vertex 74 2 2
    endloop
  endfacet
  facet normal 0 0 1
    outer loop
      vertex 39 2 2
      vertex 74 2 2
      vertex 39 78 2
    endloop
  endfacet
  facet normal -1 0 0
    outer loop
      vertex 74 2 2
      vertex 74 4 34
      vertex 74 78 2
    endloop
  endfacet
  facet normal 0 1 0
    outer loop
      vertex 74 2 2
      vertex 39 2 33.6
      vertex 39 2 34
    endloop
  endfacet
  facet normal 0 1 0
    outer loop
      vertex 74 2 2
      vertex 39 2 34
      vertex 74 2 34
    endloop
  endfacet
  facet normal -1 0 0
    outer loop
      vertex 74 2 2
      vertex 74 2 34
      vertex 74 4 34
    endloop
  endfacet
  facet normal 0 1 0
    outer loop
      vertex 37 2 33.6
      vertex 39 2 34
      vertex 39 2 33.6
    endloop
  endfacet
  facet normal 0 1 0
    outer loop
      vertex 37 2 33.6
      vertex 39 2 35.2
      vertex 39 2 34
    endloop
  endfacet
  facet normal 0 1 0
    outer loop
      vertex 37 2 35.2
      vertex 10 2 37
      vertex 74 2 37
    endloop
  endfacet
  facet normal 0 1 0
    outer loop
      vertex 37 2 35.2
      vertex 74 2 37
      vertex 39 2 35.2
    endloop
  endfacet
  facet normal 0 1 0
    outer loop
      vertex 39 2 35.2
      vertex 74 2 37
      vertex 74 2 35.2
    endloop
  endfacet
  facet normal -1 0 0
    outer loop
      vertex 74 2 35.2
      vertex 74 2 37
      vertex 74 4 35.2
    endloop
  endfacet
  facet normal -1 0 0
    outer loop
      vertex 74 4 34
      vertex 74 4 35.2
      vertex 74 78 2
    endloop
  endfacet
  facet normal -1 0 0
    outer loop
      vertex 74 2 37
      vertex 74 78 2
      vertex 74 4 35.2
    endloop
  endfacet
  facet normal 0 0 1
    outer loop
      vertex 74 2 2
      vertex 74 78 2
      vertex 39 78 2
    endloop
  endfacet
  facet normal 0 -1 0
    outer loop
      vertex 39 78 2
      vertex 74 78 2
      vertex 39 78 33.6
    endloop
  endfacet
  facet normal -1 0 0
    outer loop
      vertex 74 2 37
      vertex 74 76 34
      vertex 74 78 2
    endloop
  endfacet
  facet normal -1 0 0
    outer loop
      vertex 74 2 37
      vertex 74 76 35.2
      vertex 74 76 34
    endloop
  endfacet
  facet normal -1 0 0
    outer loop
      vertex 74 2 37
      vertex 74 78 37
      vertex 74 76 35.2
    endloop
  endfacet
  facet normal 0 -1 0
    outer loop
      vertex 74 78 2
      vertex 74 78 34
      vertex 39 78 33.6
    endloop
  endfacet
  facet normal -1 0 0
    outer loop
      vertex 74 78 2
      vertex 74 76 34
      vertex 74 78 34
    endloop
  endfacet
  facet normal 0 -1 0
    outer loop
      vertex 37 78 34
      vertex 39 78 33.6
      vertex 39 78 34
    endloop
  endfacet
  facet normal 0 -1 0
    outer loop
      vertex 37 78 35.2
      vertex 39 78 34
      vertex 39 78 35.2
    endloop
  endfacet
  facet normal 0 -1 0
    outer loop
      vertex 39 78 35.2
      vertex 74 78 37
      vertex 10 78 37
    endloop
  endfacet
  facet normal 0 -1 0
    outer loop
      vertex 39 78 33.6
      vertex 74 78 34
      vertex 39 78 34
    endloop
  endfacet
  facet normal 0 -1 0
    outer loop
      vertex 39 78 35.2
      vertex 74 78 35.2
      vertex 74 78 37
    endloop
  endfacet
  facet normal -1 0 0
    outer loop
      vertex 74 76 35.2
      vertex 74 78 37
      vertex 74 78 35.2
    endloop
  endfacet
  facet normal 1 0 0
    outer loop
      vertex 6.500000000000002 2 2
      vertex 6.500000000000002 78 2
      vertex 6.500000000000002 2 19.5
    endloop
  endfacet
  facet normal -1 0 0
    outer loop
      vertex 5.300000000000002 2 2
      vertex 5.300000000000002 2 19.5
      vertex 5.300000000000002 78 19.5
    endloop
  endfacet
  facet normal 0 0 1
    outer loop
      vertex 5.300000000000002 2 19.5
      vertex 6.500000000000002 2 19.5
      vertex 5.300000000000002 78 19.5
    endloop
  endfacet
  facet normal -1 0 0
    outer loop
      vertex 5.300000000000002 2 2
      vertex 5.300000000000002 78 19.5
      vertex 5.300000000000002 78 2
    endloop
  endfacet
  facet normal 1 0 0
    outer loop
      vertex 6.500000000000002 2 19.5
      vertex 6.500000000000002 78 2
      vertex 6.500000000000002 78 19.5
    endloop
  endfacet
  facet normal 0 0 1
    outer loop
      vertex 6.500000000000002 2 19.5
      vertex 6.500000000000002 78 19.5
      vertex 5.300000000000002 78 19.5
    endloop
  endfacet
  facet normal 1 0 0
    outer loop
      vertex 9.9 2 2
      vertex 9.9 78 2
      vertex 9.9 2 19.5
    endloop
  endfacet
  facet normal -1 0 0
    outer loop
      vertex 8.700000000000001 2 2
      vertex 8.700000000000001 2 19.5
      vertex 8.700000000000001 78 19.5
    endloop
  endfacet
  facet normal 0 0 1
    outer loop
      vertex 8.700000000000001 2 19.5
      vertex 9.9 2 19.5
      vertex 8.700000000000001 78 19.5
    endloop
  endfacet
  facet normal -1 0 0
    outer loop
      vertex 8.700000000000001 2 2
      vertex 8.700000000000001 78 19.5
      vertex 8.700000000000001 78 2
    endloop
  endfacet
  facet normal 1 0 0
    outer loop
      vertex 9.9 2 19.5
      vertex 9.9 78 2
      vertex 9.9 78 19.5
    endloop
  endfacet
  facet normal 0 0 1
    outer loop
      vertex 9.9 2 19.5
      vertex 9.9 78 19.5
      vertex 8.700000000000001 78 19.5
    endloop
  endfacet
  facet normal 1 0 0
    outer loop
      vertex 13.300000000000002 2 2
      vertex 13.300000000000002 78 2
      vertex 13.300000000000002 2 19.5
    endloop
  endfacet
  facet normal -1 0 0
    outer loop
      vertex 12.100000000000003 2 2
      vertex 12.100000000000003 2 19.5
      vertex 12.100000000000003 78 19.5
    endloop
  endfacet
  facet normal 0 0 1
    outer loop
      vertex 12.100000000000003 2 19.5
      vertex 13.300000000000002 2 19.5
      vertex 12.100000000000003 78 19.5
    endloop
  endfacet
  facet normal -1 0 0
    outer loop
      vertex 12.100000000000003 2 2
      vertex 12.100000000000003 78 19.5
      vertex 12.100000000000003 78 2
    endloop
  endfacet
  facet normal 1 0 0
    outer loop
      vertex 13.300000000000002 2 19.5
      vertex 13.300000000000002 78 2
      vertex 13.300000000000002 78 19.5
    endloop
  endfacet
  facet normal 0 0 1
    outer loop
      vertex 13.300000000000002 2 19.5
      vertex 13.300000000000002 78 19.5
      vertex 12.100000000000003 78 19.5
    endloop
  endfacet
  facet normal 1 0 0
    outer loop
      vertex 16.700000000000003 2 2
      vertex 16.700000000000003 78 2
      vertex 16.700000000000003 2 19.5
    endloop
  endfacet
  facet normal -1 0 0
    outer loop
      vertex 15.500000000000002 2 2
      vertex 15.500000000000002 2 19.5
      vertex 15.500000000000002 78 19.5
    endloop
  endfacet
  facet normal 0 0 1
    outer loop
      vertex 15.500000000000002 2 19.5
      vertex 16.700000000000003 2 19.5
      vertex 15.500000000000002 78 19.5
    endloop
  endfacet
  facet normal -1 0 0
    outer loop
      vertex 15.500000000000002 2 2
      vertex 15.500000000000002 78 19.5
      vertex 15.500000000000002 78 2
    endloop
  endfacet
  facet normal 1 0 0
    outer loop
      vertex 16.700000000000003 2 19.5
      vertex 16.700000000000003 78 2
      vertex 16.700000000000003 78 19.5
    endloop
  endfacet
  facet normal 0 0 1
    outer loop
      vertex 16.700000000000003 2 19.5
      vertex 16.700000000000003 78 19.5
      vertex 15.500000000000002 78 19.5
    endloop
  endfacet
  facet normal 1 0 0
    outer loop
      vertex 20.1 2 2
      vertex 20.1 78 2
      vertex 20.1 2 19.5
    endloop
  endfacet
  facet normal -1 0 0
    outer loop
      vertex 18.900000000000002 2 2
      vertex 18.900000000000002 2 19.5
      vertex 18.900000000000002 78 19.5
    endloop
  endfacet
  facet normal 0 0 1
    outer loop
      vertex 18.900000000000002 2 19.5
      vertex 20.1 2 19.5
      vertex 18.900000000000002 78 19.5
    endloop
  endfacet
  facet normal -1 0 0
    outer loop
      vertex 18.900000000000002 2 2
      vertex 18.900000000000002 78 19.5
      vertex 18.900000000000002 78 2
    endloop
  endfacet
  facet normal 1 0 0
    outer loop
      vertex 20.1 2 19.5
      vertex 20.1 78 2
      vertex 20.1 78 19.5
    endloop
  endfacet
  facet normal 0 0 1
    outer loop
      vertex 20.1 2 19.5
      vertex 20.1 78 19.5
      vertex 18.900000000000002 78 19.5
    endloop
  endfacet
  facet normal 1 0 0
    outer loop
      vertex 23.500000000000004 2 2
      vertex 23.500000000000004 78 2
      vertex 23.500000000000004 2 19.5
    endloop
  endfacet
  facet normal -1 0 0
    outer loop
      vertex 22.300000000000004 2 2
      vertex 22.300000000000004 2 19.5
      vertex 22.300000000000004 78 19.5
    endloop
  endfacet
  facet normal 0 0 1
    outer loop
      vertex 22.300000000000004 2 19.5
      vertex 23.500000000000004 2 19.5
      vertex 22.300000000000004 78 19.5
    endloop
  endfacet
  facet normal -1 0 0
    outer loop
      vertex 22.300000000000004 2 2
      vertex 22.300000000000004 78 19.5
      vertex 22.300000000000004 78 2
    endloop
  endfacet
  facet normal 1 0 0
    outer loop
      vertex 23.500000000000004 2 19.5
      vertex 23.500000000000004 78 2
      vertex 23.500000000000004 78 19.5
    endloop
  endfacet
  facet normal 0 0 1
    outer loop
      vertex 23.500000000000004 2 19.5
      vertex 23.500000000000004 78 19.5
      vertex 22.300000000000004 78 19.5
    endloop
  endfacet
  facet normal 1 0 0
    outer loop
      vertex 26.900000000000002 2 2
      vertex 26.900000000000002 78 2
      vertex 26.900000000000002 2 19.5
    endloop
  endfacet
  facet normal -1 0 0
    outer loop
      vertex 25.700000000000003 2 2
      vertex 25.700000000000003 2 19.5
      vertex 25.700000000000003 78 19.5
    endloop
  endfacet
  facet normal 0 0 1
    outer loop
      vertex 25.700000000000003 2 19.5
      vertex 26.900000000000002 2 19.5
      vertex 25.700000000000003 78 19.5
    endloop
  endfacet
  facet normal -1 0 0
    outer loop
      vertex 25.700000000000003 2 2
      vertex 25.700000000000003 78 19.5
      vertex 25.700000000000003 78 2
    endloop
  endfacet
  facet normal 1 0 0
    outer loop
      vertex 26.900000000000002 2 19.5
      vertex 26.900000000000002 78 2
      vertex 26.900000000000002 78 19.5
    endloop
  endfacet
  facet normal 0 0 1
    outer loop
      vertex 26.900000000000002 2 19.5
      vertex 26.900000000000002 78 19.5
      vertex 25.700000000000003 78 19.5
    endloop
  endfacet
  facet normal 1 0 0
    outer loop
      vertex 30.3 2 2
      vertex 30.3 78 2
      vertex 30.3 2 19.5
    endloop
  endfacet
  facet normal -1 0 0
    outer loop
      vertex 29.1 2 2
      vertex 29.1 2 19.5
      vertex 29.1 78 19.5
    endloop
  endfacet
  facet normal 0 0 1
    outer loop
      vertex 29.1 2 19.5
      vertex 30.3 2 19.5
      vertex 29.1 78 19.5
    endloop
  endfacet
  facet normal -1 0 0
    outer loop
      vertex 29.1 2 2
      vertex 29.1 78 19.5
      vertex 29.1 78 2
    endloop
  endfacet
  facet normal 1 0 0
    outer loop
      vertex 30.3 2 19.5
      vertex 30.3 78 2
      vertex 30.3 78 19.5
    endloop
  endfacet
  facet normal 0 0 1
    outer loop
      vertex 30.3 2 19.5
      vertex 30.3 78 19.5
      vertex 29.1 78 19.5
    endloop
  endfacet
  facet normal 1 0 0
    outer loop
      vertex 33.7 2 2
      vertex 33.7 78 2
      vertex 33.7 2 19.5
    endloop
  endfacet
  facet normal -1 0 0
    outer loop
      vertex 32.5 2 2
      vertex 32.5 2 19.5
      vertex 32.5 78 19.5
    endloop
  endfacet
  facet normal 0 0 1
    outer loop
      vertex 32.5 2 19.5
      vertex 33.7 2 19.5
      vertex 32.5 78 19.5
    endloop
  endfacet
  facet normal -1 0 0
    outer loop
      vertex 32.5 2 2
      vertex 32.5 78 19.5
      vertex 32.5 78 2
    endloop
  endfacet
  facet normal 1 0 0
    outer loop
      vertex 33.7 2 19.5
      vertex 33.7 78 2
      vertex 33.7 78 19.5
    endloop
  endfacet
  facet normal 0 0 1
    outer loop
      vertex 33.7 2 19.5
      vertex 33.7 78 19.5
      vertex 32.5 78 19.5
    endloop
  endfacet
  facet normal 0 0 -1
    outer loop
      vertex 37 2 34
      vertex 10 2 34
      vertex 10 4 34
    endloop
  endfacet
  facet normal 0 1 0
    outer loop
      vertex 37 4 34
      vertex 10 4 34
      vertex 10 4 35.2
    endloop
  endfacet
  facet normal 0 0 1
    outer loop
      vertex 37 4 35.2
      vertex 10 4 35.2
      vertex 10 2 35.2
    endloop
  endfacet
  facet normal 0 0 -1
    outer loop
      vertex 37 2 34
      vertex 10 4 34
      vertex 37 4 34
    endloop
  endfacet
  facet normal 1 0 0
    outer loop
      vertex 37 2 34
      vertex 37 4 34
      vertex 37 2 35.2
    endloop
  endfacet
  facet normal 0 0 1
    outer loop
      vertex 37 2 35.2
      vertex 37 4 35.2
      vertex 10 2 35.2
    endloop
  endfacet
  facet normal 0 1 0
    outer loop
      vertex 37 4 34
      vertex 10 4 35.2
      vertex 37 4 35.2
    endloop
  endfacet
  facet normal 1 0 0
    outer loop
      vertex 37 4 34
      vertex 37 4 35.2
      vertex 37 2 35.2
    endloop
  endfacet
  facet normal 0 0 -1
    outer loop
      vertex 37 76 34
      vertex 10 76 34
      vertex 10 78 34
    endloop
  endfacet
  facet normal 0 -1 0
    outer loop
      vertex 37 76 35.2
      vertex 10 76 35.2
      vertex 10 76 34
    endloop
  endfacet
  facet normal 0 0 1
    outer loop
      vertex 37 78 35.2
      vertex 10 78 35.2
      vertex 10 76 35.2
    endloop
  endfacet
  facet normal 0 -1 0
    outer loop
      vertex 37 76 34
      vertex 37 76 35.2
      vertex 10 76 34
    endloop
  endfacet
  facet normal 0 0 -1
    outer loop
      vertex 37 76 34
      vertex 10 78 34
      vertex 37 78 34
    endloop
  endfacet
  facet normal 1 0 0
    outer loop
      vertex 37 76 34
      vertex 37 78 34
      vertex 37 76 35.2
    endloop
  endfacet
  facet normal 0 0 1
    outer loop
      vertex 37 76 35.2
      vertex 37 78 35.2
      vertex 10 76 35.2
    endloop
  endfacet
  facet normal 1 0 0
    outer loop
      vertex 37 78 34
      vertex 37 78 35.2
      vertex 37 76 35.2
    endloop
  endfacet
  facet normal -1 0 0
    outer loop
      vertex 39 2 34
      vertex 39 4 35.2
      vertex 39 4 34
    endloop
  endfacet
  facet normal -1 0 0
    outer loop
      vertex 39 2 34
      vertex 39 2 35.2
      vertex 39 4 35.2
    endloop
  endfacet
  facet normal 0 0 -1
    outer loop
      vertex 39 2 34
      vertex 39 4 34
      vertex 74 4 34
    endloop
  endfacet
  facet normal 0 1 0
    outer loop
      vertex 39 4 34
      vertex 39 4 35.2
      vertex 74 4 34
    endloop
  endfacet
  facet normal 0 0 1
    outer loop
      vertex 39 2 35.2
      vertex 74 2 35.2
      vertex 39 4 35.2
    endloop
  endfacet
  facet normal 0 0 -1
    outer loop
      vertex 39 2 34
      vertex 74 4 34
      vertex 74 2 34
    endloop
  endfacet
  facet normal 0 0 1
    outer loop
      vertex 39 4 35.2
      vertex 74 2 35.2
      vertex 74 4 35.2
    endloop
  endfacet
  facet normal 0 1 0
    outer loop
      vertex 39 4 35.2
      vertex 74 4 35.2
      vertex 74 4 34
    endloop
  endfacet
  facet normal -1 0 0
    outer loop
      vertex 39 76 34
      vertex 39 78 35.2
      vertex 39 78 34
    endloop
  endfacet
  facet normal -1 0 0
    outer loop
      vertex 39 76 34
      vertex 39 76 35.2
      vertex 39 78 35.2
    endloop
  endfacet
  facet normal 0 0 -1
    outer loop
      vertex 39 76 34
      vertex 39 78 34
      vertex 74 78 34
    endloop
  endfacet
  facet normal 0 -1 0
    outer loop
      vertex 39 76 34
      vertex 74 76 35.2
      vertex 39 76 35.2
    endloop
  endfacet
  facet normal 0 0 1
    outer loop
      vertex 39 76 35.2
      vertex 74 76 35.2
      vertex 39 78 35.2
    endloop
  endfacet
  facet normal 0 -1 0
    outer loop
      vertex 39 76 34
      vertex 74 76 34
      vertex 74 76 35.2
    endloop
  endfacet
  facet normal 0 0 -1
    outer loop
      vertex 39 76 34
      vertex 74 78 34
      vertex 74 76 34
    endloop
  endfacet
  facet normal 0 0 1
    outer loop
      vertex 39 78 35.2
      vertex 74 76 35.2
      vertex 74 78 35.2
    endloop
  endfacet
  facet normal -1 0 0
    outer loop
      vertex 37 2 2
      vertex 37 2 33.6
      vertex 37 78 33.6
    endloop
  endfacet
  facet normal 0 0 1
    outer loop
      vertex 37 2 33.6
      vertex 39 2 33.6
      vertex 37 78 33.6
    endloop
  endfacet
  facet normal -1 0 0
    outer loop
      vertex 37 2 2
      vertex 37 78 33.6
      vertex 37 78 2
    endloop
  endfacet
  facet normal 1 0 0
    outer loop
      vertex 39 2 2
      vertex 39 78 2
      vertex 39 2 33.6
    endloop
  endfacet
  facet normal 1 0 0
    outer loop
      vertex 39 2 33.6
      vertex 39 78 2
      vertex 39 78 33.6
    endloop
  endfacet
  facet normal 0 0 1
    outer loop
      vertex 37 78 33.6
      vertex 39 2 33.6
      vertex 39 78 33.6
    endloop
  endfacet
  facet normal 0 0 1
    outer loop
      vertex 2 2 34
      vertex 0 0 34
      vertex 10 0 34
    endloop
  endfacet
  facet normal 0 0 1
    outer loop
      vertex 2 2 34
      vertex 10 0 34
      vertex 10 2 34
    endloop
  endfacet
  facet normal -1 0 0
    outer loop
      vertex 10 2 35.2
      vertex 10 2 34
      vertex 10 0 34
    endloop
  endfacet
  facet normal -1 0 0
    outer loop
      vertex 10 2 35.2
      vertex 10 4 34
      vertex 10 2 34
    endloop
  endfacet
  facet normal -1 0 0
    outer loop
      vertex 10 2 35.2
      vertex 10 0 34
      vertex 10 0 37
    endloop
  endfacet
  facet normal -1 0 0
    outer loop
      vertex 10 2 37
      vertex 10 2 35.2
      vertex 10 0 37
    endloop
  endfacet
  facet normal -1 0 0
    outer loop
      vertex 10 4 35.2
      vertex 10 4 34
      vertex 10 2 35.2
    endloop
  endfacet
  facet normal 0 0 1
    outer loop
      vertex 0 80 34
      vertex 0 0 34
      vertex 2 2 34
    endloop
  endfacet
  facet normal 0 0 1
    outer loop
      vertex 2 2 34
      vertex 2 78 34
      vertex 0 80 34
    endloop
  endfacet
  facet normal 0 0 1
    outer loop
      vertex 0 80 34
      vertex 2 78 34
      vertex 10 80 34
    endloop
  endfacet
  facet normal -1 0 0
    outer loop
      vertex 10 76 35.2
      vertex 10 78 34
      vertex 10 76 34
    endloop
  endfacet
  facet normal 0 0 1
    outer loop
      vertex 2 78 34
      vertex 10 78 34
      vertex 10 80 34
    endloop
  endfacet
  facet normal -1 0 0
    outer loop
      vertex 10 78 34
      vertex 10 76 35.2
      vertex 10 80 34
    endloop
  endfacet
  facet normal -1 0 0
    outer loop
      vertex 10 78 35.2
      vertex 10 80 34
      vertex 10 76 35.2
    endloop
  endfacet
  facet normal -1 0 0
    outer loop
      vertex 10 78 35.2
      vertex 10 80 37
      vertex 10 80 34
    endloop
  endfacet
  facet normal -1 0 0
    outer loop
      vertex 10 78 37
      vertex 10 80 37
      vertex 10 78 35.2
    endloop
  endfacet
  facet normal -1 0 0
    outer loop
      vertex 81 4.3 0
      vertex 81 4.3 3
      vertex 81 35.8434855532445 0
    endloop
  endfacet
  facet normal 0 0 -1
    outer loop
      vertex 81 4.3 0
      vertex 81 35.8434855532445 0
      vertex 81.21963871193549 35.77685887838708 0
    endloop
  endfacet
  facet normal 0 0 -1
    outer loop
      vertex 81 4.3 0
      vertex 81.21963871193549 35.77685887838708 0
      vertex 82 35.7 0
    endloop
  endfacet
  facet normal 0 0 -1
    outer loop
      vertex 81 4.3 0
      vertex 82 35.7 0
      vertex 82.78036128806451 35.77685887838708 0
    endloop
  endfacet
  facet normal -1 0 0
    outer loop
      vertex 81 35.8434855532445 0
      vertex 81 4.3 3
      vertex 81 35.8434855532445 3
    endloop
  endfacet
  facet normal 0 0 1
    outer loop
      vertex 81 4.3 3
      vertex 81.21963871193549 35.77685887838708 3
      vertex 81 35.8434855532445 3
    endloop
  endfacet
  facet normal 0 0 1
    outer loop
      vertex 81 4.3 3
      vertex 82 35.7 3
      vertex 81.21963871193549 35.77685887838708 3
    endloop
  endfacet
  facet normal 0 -1 0
    outer loop
      vertex 81 4.3 0
      vertex 126 4.3 3
      vertex 81 4.3 3
    endloop
  endfacet
  facet normal 0 0 1
    outer loop
      vertex 81 4.3 3
      vertex 126 4.3 3
      vertex 82 35.7 3
    endloop
  endfacet
  facet normal 0 0 -1
    outer loop
      vertex 81 4.3 0
      vertex 119 5.3 0
      vertex 119 4.3 0
    endloop
  endfacet
  facet normal 0 -1 0
    outer loop
      vertex 81 4.3 0
      vertex 119 4.3 0
      vertex 126 4.3 3
    endloop
  endfacet
  facet normal 0 0 -1
    outer loop
      vertex 126 4.3 0
      vertex 122 4.3 0
      vertex 122 5.3 0
    endloop
  endfacet
  facet normal 0 -1 0
    outer loop
      vertex 126 4.3 3
      vertex 119 4.3 0
      vertex 122 4.3 0
    endloop
  endfacet
  facet normal 0 -1 0
    outer loop
      vertex 122 4.3 0
      vertex 126 4.3 0
      vertex 126 4.3 3
    endloop
  endfacet
  facet normal 0 0 -1
    outer loop
      vertex 81 4.3 0
      vertex 82.78036128806451 35.77685887838708 0
      vertex 83.53073372946037 36.00448186995486 0
    endloop
  endfacet
  facet normal 0 0 -1
    outer loop
      vertex 81 4.3 0
      vertex 83.53073372946037 36.00448186995486 0
      vertex 84.2222809320784 36.37412155078982 0
    endloop
  endfacet
  facet normal 0 0 -1
    outer loop
      vertex 81 4.3 0
      vertex 84.2222809320784 36.37412155078982 0
      vertex 84.82842712474618 36.87157287525381 0
    endloop
  endfacet
  facet normal 0 0 1
    outer loop
      vertex 82 35.7 3
      vertex 126 4.3 3
      vertex 82.78036128806451 35.77685887838708 3
    endloop
  endfacet
  facet normal 0 0 1
    outer loop
      vertex 82.78036128806451 35.77685887838708 3
      vertex 126 4.3 3
      vertex 83.53073372946037 36.00448186995486 3
    endloop
  endfacet
  facet normal 0 0 1
    outer loop
      vertex 83.53073372946037 36.00448186995486 3
      vertex 126 4.3 3
      vertex 84.2222809320784 36.37412155078982 3
    endloop
  endfacet
  facet normal 0 0 1
    outer loop
      vertex 84.2222809320784 36.37412155078982 3
      vertex 126 4.3 3
      vertex 84.82842712474618 36.87157287525381 3
    endloop
  endfacet
  facet normal 0 0 1
    outer loop
      vertex 84.82842712474618 36.87157287525381 3
      vertex 126 4.3 3
      vertex 85.32587844921018 37.4777190679216 3
    endloop
  endfacet
  facet normal 0 0 1
    outer loop
      vertex 85.32587844921018 37.4777190679216 3
      vertex 126 4.3 3
      vertex 85.69551813004514 38.169266270539644 3
    endloop
  endfacet
  facet normal 0 0 1
    outer loop
      vertex 85.69551813004514 38.169266270539644 3
      vertex 126 4.3 3
      vertex 85.92314112161293 38.91963871193549 3
    endloop
  endfacet
  facet normal 0 0 1
    outer loop
      vertex 85.92314112161293 38.91963871193549 3
      vertex 126 4.3 3
      vertex 86 39.7 3
    endloop
  endfacet
  facet normal 0 0 1
    outer loop
      vertex 86 39.7 3
      vertex 126 4.3 3
      vertex 85.92314112161293 40.480361288064515 3
    endloop
  endfacet
  facet normal 0 0 1
    outer loop
      vertex 85.69551813004514 41.23073372946036 3
      vertex 85.92314112161293 40.480361288064515 3
      vertex 126 4.3 3
    endloop
  endfacet
  facet normal 0 0 1
    outer loop
      vertex 85.32587844921018 41.92228093207841 3
      vertex 85.69551813004514 41.23073372946036 3
      vertex 126 4.3 3
    endloop
  endfacet
  facet normal 0 0 1
    outer loop
      vertex 84.82842712474618 42.528427124746194 3
      vertex 85.32587844921018 41.92228093207841 3
      vertex 126 4.3 3
    endloop
  endfacet
  facet normal 0 0 -1
    outer loop
      vertex 81 4.3 0
      vertex 84.82842712474618 36.87157287525381 0
      vertex 126 75.7 0
    endloop
  endfacet
  facet normal 0 0 -1
    outer loop
      vertex 81 4.3 0
      vertex 126 75.7 0
      vertex 119 5.3 0
    endloop
  endfacet
  facet normal 0 0 -1
    outer loop
      vertex 126 75.7 0
      vertex 122 5.3 0
      vertex 119 5.3 0
    endloop
  endfacet
  facet normal 0 0 -1
    outer loop
      vertex 126 4.3 0
      vertex 122 5.3 0
      vertex 126 75.7 0
    endloop
  endfacet
  facet normal 1 0 0
    outer loop
      vertex 126 4.3 0
      vertex 126 75.7 0
      vertex 126 4.3 3
    endloop
  endfacet
  facet normal 0 0 -1
    outer loop
      vertex 81 43.55651444675551 0
      vertex 81 75.7 0
      vertex 81.21963871193549 43.623141121612925 0
    endloop
  endfacet
  facet normal 0 0 -1
    outer loop
      vertex 81.21963871193549 43.623141121612925 0
      vertex 81 75.7 0
      vertex 82 43.7 0
    endloop
  endfacet
  facet normal -1 0 0
    outer loop
      vertex 81 43.55651444675551 0
      vertex 81 43.55651444675551 3
      vertex 81 75.7 0
    endloop
  endfacet
  facet normal 0 0 1
    outer loop
      vertex 81 43.55651444675551 3
      vertex 81.21963871193549 43.623141121612925 3
      vertex 81 75.7 3
    endloop
  endfacet
  facet normal 0 0 1
    outer loop
      vertex 81.21963871193549 43.623141121612925 3
      vertex 82 43.7 3
      vertex 81 75.7 3
    endloop
  endfacet
  facet normal 0 0 1
    outer loop
      vertex 82 43.7 3
      vertex 82.78036128806451 43.623141121612925 3
      vertex 81 75.7 3
    endloop
  endfacet
  facet normal -1 0 0
    outer loop
      vertex 81 75.7 0
      vertex 81 43.55651444675551 3
      vertex 81 75.7 3
    endloop
  endfacet
  facet normal 0 0 1
    outer loop
      vertex 84.82842712474618 42.528427124746194 3
      vertex 126 4.3 3
      vertex 81 75.7 3
    endloop
  endfacet
  facet normal 0 0 1
    outer loop
      vertex 82.78036128806451 43.623141121612925 3
      vertex 83.53073372946037 43.39551813004515 3
      vertex 81 75.7 3
    endloop
  endfacet
  facet normal 0 0 1
    outer loop
      vertex 83.53073372946037 43.39551813004515 3
      vertex 84.2222809320784 43.02587844921018 3
      vertex 81 75.7 3
    endloop
  endfacet
  facet normal 0 0 1
    outer loop
      vertex 84.2222809320784 43.02587844921018 3
      vertex 84.82842712474618 42.528427124746194 3
      vertex 81 75.7 3
    endloop
  endfacet
  facet normal 0 0 -1
    outer loop
      vertex 82 43.7 0
      vertex 126 75.7 0
      vertex 82.78036128806451 43.623141121612925 0
    endloop
  endfacet
  facet normal 0 0 -1
    outer loop
      vertex 82.78036128806451 43.623141121612925 0
      vertex 126 75.7 0
      vertex 83.53073372946037 43.39551813004515 0
    endloop
  endfacet
  facet normal 0 0 -1
    outer loop
      vertex 83.53073372946037 43.39551813004515 0
      vertex 126 75.7 0
      vertex 84.2222809320784 43.02587844921018 0
    endloop
  endfacet
  facet normal 0 0 -1
    outer loop
      vertex 84.2222809320784 43.02587844921018 0
      vertex 126 75.7 0
      vertex 84.82842712474618 42.528427124746194 0
    endloop
  endfacet
  facet normal 0 0 -1
    outer loop
      vertex 84.82842712474618 36.87157287525381 0
      vertex 85.32587844921018 37.4777190679216 0
      vertex 126 75.7 0
    endloop
  endfacet
  facet normal 0 0 -1
    outer loop
      vertex 85.32587844921018 37.4777190679216 0
      vertex 85.69551813004514 38.169266270539644 0
      vertex 126 75.7 0
    endloop
  endfacet
  facet normal 0 0 -1
    outer loop
      vertex 85.69551813004514 38.169266270539644 0
      vertex 85.92314112161293 38.91963871193549 0
      vertex 126 75.7 0
    endloop
  endfacet
  facet normal 0 0 -1
    outer loop
      vertex 85.92314112161293 38.91963871193549 0
      vertex 86 39.7 0
      vertex 126 75.7 0
    endloop
  endfacet
  facet normal 0 0 -1
    outer loop
      vertex 86 39.7 0
      vertex 85.92314112161293 40.480361288064515 0
      vertex 126 75.7 0
    endloop
  endfacet
  facet normal 0 0 -1
    outer loop
      vertex 85.69551813004514 41.23073372946036 0
      vertex 126 75.7 0
      vertex 85.92314112161293 40.480361288064515 0
    endloop
  endfacet
  facet normal 0 0 -1
    outer loop
      vertex 85.32587844921018 41.92228093207841 0
      vertex 126 75.7 0
      vertex 85.69551813004514 41.23073372946036 0
    endloop
  endfacet
  facet normal 0 0 -1
    outer loop
      vertex 84.82842712474618 42.528427124746194 0
      vertex 126 75.7 0
      vertex 85.32587844921018 41.92228093207841 0
    endloop
  endfacet
  facet normal 0 0 1
    outer loop
      vertex 81 75.7 3
      vertex 126 4.3 3
      vertex 126 75.7 3
    endloop
  endfacet
  facet normal 1 0 0
    outer loop
      vertex 126 4.3 3
      vertex 126 75.7 0
      vertex 126 75.7 3
    endloop
  endfacet
  facet normal 0 0 -1
    outer loop
      vertex 82 43.7 0
      vertex 81 75.7 0
      vertex 119 74.7 0
    endloop
  endfacet
  facet normal 0 1 0
    outer loop
      vertex 81 75.7 0
      vertex 81 75.7 3
      vertex 119 75.7 0
    endloop
  endfacet
  facet normal 0 0 -1
    outer loop
      vertex 82 43.7 0
      vertex 119 74.7 0
      vertex 122 74.7 0
    endloop
  endfacet
  facet normal 0 0 -1
    outer loop
      vertex 82 43.7 0
      vertex 122 74.7 0
      vertex 126 75.7 0
    endloop
  endfacet
  facet normal 0 0 -1
    outer loop
      vertex 81 75.7 0
      vertex 119 75.7 0
      vertex 119 74.7 0
    endloop
  endfacet
  facet normal 0 1 0
    outer loop
      vertex 81 75.7 3
      vertex 122 75.7 0
      vertex 119 75.7 0
    endloop
  endfacet
  facet normal 0 1 0
    outer loop
      vertex 126 75.7 0
      vertex 122 75.7 0
      vertex 81 75.7 3
    endloop
  endfacet
  facet normal 0 1 0
    outer loop
      vertex 81 75.7 3
      vertex 126 75.7 3
      vertex 126 75.7 0
    endloop
  endfacet
  facet normal 0 0 -1
    outer loop
      vertex 126 75.7 0
      vertex 122 74.7 0
      vertex 122 75.7 0
    endloop
  endfacet
  facet normal 0 -1 0
    outer loop
      vertex -50 4.3 0
      vertex -5 4.3 3
      vertex -50 4.3 3
    endloop
  endfacet
  facet normal -1 0 0
    outer loop
      vertex -50 4.3 0
      vertex -50 4.3 3
      vertex -50 35.8434855532445 0
    endloop
  endfacet
  facet normal 0 0 1
    outer loop
      vertex -50 4.3 3
      vertex -5 4.3 3
      vertex -49 35.7 3
    endloop
  endfacet
  facet normal 0 0 -1
    outer loop
      vertex -50 4.3 0
      vertex -14 5.3 0
      vertex -14 4.3 0
    endloop
  endfacet
  facet normal 0 -1 0
    outer loop
      vertex -50 4.3 0
      vertex -14 4.3 0
      vertex -5 4.3 3
    endloop
  endfacet
  facet normal 0 0 -1
    outer loop
      vertex -5 4.3 0
      vertex -11 4.3 0
      vertex -11 5.3 0
    endloop
  endfacet
  facet normal 0 -1 0
    outer loop
      vertex -5 4.3 3
      vertex -14 4.3 0
      vertex -11 4.3 0
    endloop
  endfacet
  facet normal 0 -1 0
    outer loop
      vertex -11 4.3 0
      vertex -5 4.3 0
      vertex -5 4.3 3
    endloop
  endfacet
  facet normal 0 0 -1
    outer loop
      vertex -50 4.3 0
      vertex -50 35.8434855532445 0
      vertex -49.78036128806451 35.77685887838708 0
    endloop
  endfacet
  facet normal 0 0 -1
    outer loop
      vertex -50 4.3 0
      vertex -49.78036128806451 35.77685887838708 0
      vertex -49 35.7 0
    endloop
  endfacet
  facet normal 0 0 -1
    outer loop
      vertex -50 4.3 0
      vertex -49 35.7 0
      vertex -48.21963871193549 35.77685887838708 0
    endloop
  endfacet
  facet normal 0 0 -1
    outer loop
      vertex -50 4.3 0
      vertex -48.21963871193549 35.77685887838708 0
      vertex -47.46926627053964 36.00448186995486 0
    endloop
  endfacet
  facet normal 0 0 -1
    outer loop
      vertex -50 4.3 0
      vertex -47.46926627053964 36.00448186995486 0
      vertex -46.777719067921595 36.37412155078982 0
    endloop
  endfacet
  facet normal 0 0 -1
    outer loop
      vertex -50 4.3 0
      vertex -46.777719067921595 36.37412155078982 0
      vertex -46.17157287525381 36.87157287525381 0
    endloop
  endfacet
  facet normal -1 0 0
    outer loop
      vertex -50 35.8434855532445 0
      vertex -50 4.3 3
      vertex -50 35.8434855532445 3
    endloop
  endfacet
  facet normal 0 0 1
    outer loop
      vertex -50 4.3 3
      vertex -49.78036128806451 35.77685887838708 3
      vertex -50 35.8434855532445 3
    endloop
  endfacet
  facet normal 0 0 1
    outer loop
      vertex -50 4.3 3
      vertex -49 35.7 3
      vertex -49.78036128806451 35.77685887838708 3
    endloop
  endfacet
  facet normal 0 0 1
    outer loop
      vertex -49 35.7 3
      vertex -5 4.3 3
      vertex -48.21963871193549 35.77685887838708 3
    endloop
  endfacet
  facet normal 0 0 1
    outer loop
      vertex -48.21963871193549 35.77685887838708 3
      vertex -5 4.3 3
      vertex -47.46926627053964 36.00448186995486 3
    endloop
  endfacet
  facet normal 0 0 1
    outer loop
      vertex -47.46926627053964 36.00448186995486 3
      vertex -5 4.3 3
      vertex -46.777719067921595 36.37412155078982 3
    endloop
  endfacet
  facet normal 0 0 1
    outer loop
      vertex -46.777719067921595 36.37412155078982 3
      vertex -5 4.3 3
      vertex -46.17157287525381 36.87157287525381 3
    endloop
  endfacet
  facet normal 0 0 1
    outer loop
      vertex -46.17157287525381 36.87157287525381 3
      vertex -5 4.3 3
      vertex -45.67412155078982 37.4777190679216 3
    endloop
  endfacet
  facet normal 0 0 1
    outer loop
      vertex -45.67412155078982 37.4777190679216 3
      vertex -5 4.3 3
      vertex -45.304481869954856 38.169266270539644 3
    endloop
  endfacet
  facet normal 0 0 1
    outer loop
      vertex -45.304481869954856 38.169266270539644 3
      vertex -5 4.3 3
      vertex -45.07685887838708 38.91963871193549 3
    endloop
  endfacet
  facet normal 0 0 1
    outer loop
      vertex -45.07685887838708 38.91963871193549 3
      vertex -5 4.3 3
      vertex -45 39.7 3
    endloop
  endfacet
  facet normal 0 0 1
    outer loop
      vertex -45 39.7 3
      vertex -5 4.3 3
      vertex -45.07685887838708 40.480361288064515 3
    endloop
  endfacet
  facet normal 0 0 1
    outer loop
      vertex -45.304481869954856 41.23073372946036 3
      vertex -45.07685887838708 40.480361288064515 3
      vertex -5 4.3 3
    endloop
  endfacet
  facet normal 0 0 1
    outer loop
      vertex -46.17157287525381 42.528427124746194 3
      vertex -45.67412155078982 41.92228093207841 3
      vertex -5 4.3 3
    endloop
  endfacet
  facet normal 0 0 1
    outer loop
      vertex -45.67412155078982 41.92228093207841 3
      vertex -45.304481869954856 41.23073372946036 3
      vertex -5 4.3 3
    endloop
  endfacet
  facet normal 0 0 -1
    outer loop
      vertex -50 4.3 0
      vertex -46.17157287525381 36.87157287525381 0
      vertex -5 75.7 0
    endloop
  endfacet
  facet normal 0 0 -1
    outer loop
      vertex -50 4.3 0
      vertex -5 75.7 0
      vertex -14 5.3 0
    endloop
  endfacet
  facet normal 0 0 -1
    outer loop
      vertex -5 75.7 0
      vertex -11 5.3 0
      vertex -14 5.3 0
    endloop
  endfacet
  facet normal 0 0 -1
    outer loop
      vertex -5 4.3 0
      vertex -11 5.3 0
      vertex -5 75.7 0
    endloop
  endfacet
  facet normal 1 0 0
    outer loop
      vertex -5 4.3 0
      vertex -5 75.7 0
      vertex -5 4.3 3
    endloop
  endfacet
  facet normal 0 0 1
    outer loop
      vertex -46.17157287525381 42.528427124746194 3
      vertex -5 4.3 3
      vertex -50 75.7 3
    endloop
  endfacet
  facet normal 0 0 -1
    outer loop
      vertex -50 43.55651444675551 0
      vertex -50 75.7 0
      vertex -49.78036128806451 43.623141121612925 0
    endloop
  endfacet
  facet normal 0 0 -1
    outer loop
      vertex -49.78036128806451 43.623141121612925 0
      vertex -50 75.7 0
      vertex -49 43.7 0
    endloop
  endfacet
  facet normal -1 0 0
    outer loop
      vertex -50 43.55651444675551 0
      vertex -50 43.55651444675551 3
      vertex -50 75.7 0
    endloop
  endfacet
  facet normal 0 0 1
    outer loop
      vertex -50 43.55651444675551 3
      vertex -49.78036128806451 43.623141121612925 3
      vertex -50 75.7 3
    endloop
  endfacet
  facet normal 0 0 1
    outer loop
      vertex -49.78036128806451 43.623141121612925 3
      vertex -49 43.7 3
      vertex -50 75.7 3
    endloop
  endfacet
  facet normal 0 0 1
    outer loop
      vertex -49 43.7 3
      vertex -48.21963871193549 43.623141121612925 3
      vertex -50 75.7 3
    endloop
  endfacet
  facet normal 0 0 1
    outer loop
      vertex -47.46926627053964 43.39551813004515 3
      vertex -46.777719067921595 43.02587844921018 3
      vertex -50 75.7 3
    endloop
  endfacet
  facet normal 0 0 1
    outer loop
      vertex -48.21963871193549 43.623141121612925 3
      vertex -47.46926627053964 43.39551813004515 3
      vertex -50 75.7 3
    endloop
  endfacet
  facet normal 0 0 1
    outer loop
      vertex -46.777719067921595 43.02587844921018 3
      vertex -46.17157287525381 42.528427124746194 3
      vertex -50 75.7 3
    endloop
  endfacet
  facet normal 0 0 -1
    outer loop
      vertex -49 43.7 0
      vertex -5 75.7 0
      vertex -48.21963871193549 43.623141121612925 0
    endloop
  endfacet
  facet normal 0 0 -1
    outer loop
      vertex -48.21963871193549 43.623141121612925 0
      vertex -5 75.7 0
      vertex -47.46926627053964 43.39551813004515 0
    endloop
  endfacet
  facet normal 0 0 -1
    outer loop
      vertex -46.17157287525381 36.87157287525381 0
      vertex -45.67412155078982 37.4777190679216 0
      vertex -5 75.7 0
    endloop
  endfacet
  facet normal 0 0 -1
    outer loop
      vertex -45.67412155078982 37.4777190679216 0
      vertex -45.304481869954856 38.169266270539644 0
      vertex -5 75.7 0
    endloop
  endfacet
  facet normal 0 0 -1
    outer loop
      vertex -45.304481869954856 38.169266270539644 0
      vertex -45.07685887838708 38.91963871193549 0
      vertex -5 75.7 0
    endloop
  endfacet
  facet normal 0 0 -1
    outer loop
      vertex -45.07685887838708 38.91963871193549 0
      vertex -45 39.7 0
      vertex -5 75.7 0
    endloop
  endfacet
  facet normal 0 0 -1
    outer loop
      vertex -45 39.7 0
      vertex -45.07685887838708 40.480361288064515 0
      vertex -5 75.7 0
    endloop
  endfacet
  facet normal 0 0 -1
    outer loop
      vertex -45.304481869954856 41.23073372946036 0
      vertex -5 75.7 0
      vertex -45.07685887838708 40.480361288064515 0
    endloop
  endfacet
  facet normal 0 0 -1
    outer loop
      vertex -46.17157287525381 42.528427124746194 0
      vertex -5 75.7 0
      vertex -45.67412155078982 41.92228093207841 0
    endloop
  endfacet
  facet normal 0 0 -1
    outer loop
      vertex -45.67412155078982 41.92228093207841 0
      vertex -5 75.7 0
      vertex -45.304481869954856 41.23073372946036 0
    endloop
  endfacet
  facet normal 0 0 -1
    outer loop
      vertex -47.46926627053964 43.39551813004515 0
      vertex -5 75.7 0
      vertex -46.777719067921595 43.02587844921018 0
    endloop
  endfacet
  facet normal 0 0 -1
    outer loop
      vertex -46.777719067921595 43.02587844921018 0
      vertex -5 75.7 0
      vertex -46.17157287525381 42.528427124746194 0
    endloop
  endfacet
  facet normal 0 0 1
    outer loop
      vertex -50 75.7 3
      vertex -5 4.3 3
      vertex -5 75.7 3
    endloop
  endfacet
  facet normal -1 0 0
    outer loop
      vertex -50 75.7 0
      vertex -50 43.55651444675551 3
      vertex -50 75.7 3
    endloop
  endfacet
  facet normal 0 0 -1
    outer loop
      vertex -49 43.7 0
      vertex -50 75.7 0
      vertex -14 74.7 0
    endloop
  endfacet
  facet normal 0 1 0
    outer loop
      vertex -50 75.7 0
      vertex -50 75.7 3
      vertex -14 75.7 0
    endloop
  endfacet
  facet normal 0 0 -1
    outer loop
      vertex -49 43.7 0
      vertex -14 74.7 0
      vertex -11 74.7 0
    endloop
  endfacet
  facet normal 0 0 -1
    outer loop
      vertex -49 43.7 0
      vertex -11 74.7 0
      vertex -5 75.7 0
    endloop
  endfacet
  facet normal 0 0 -1
    outer loop
      vertex -50 75.7 0
      vertex -14 75.7 0
      vertex -14 74.7 0
    endloop
  endfacet
  facet normal 0 1 0
    outer loop
      vertex -50 75.7 3
      vertex -11 75.7 0
      vertex -14 75.7 0
    endloop
  endfacet
  facet normal 0 1 0
    outer loop
      vertex -5 75.7 0
      vertex -11 75.7 0
      vertex -50 75.7 3
    endloop
  endfacet
  facet normal 0 1 0
    outer loop
      vertex -50 75.7 3
      vertex -5 75.7 3
      vertex -5 75.7 0
    endloop
  endfacet
  facet normal 0 0 -1
    outer loop
      vertex -5 75.7 0
      vertex -11 74.7 0
      vertex -11 75.7 0
    endloop
  endfacet
  facet normal 1 0 0
    outer loop
      vertex -5 4.3 3
      vertex -5 75.7 0
      vertex -5 75.7 3
    endloop
  endfacet
  facet normal 0.2902846772544569 0.9569403357322105 0
    outer loop
      vertex 81 35.8434855532445 0
      vertex 81.21963871193549 35.77685887838708 3
      vertex 81.21963871193549 35.77685887838708 0
    endloop
  endfacet
  facet normal 0.09801714032956084 0.9951847266721968 0
    outer loop
      vertex 81.21963871193549 35.77685887838708 0
      vertex 81.21963871193549 35.77685887838708 3
      vertex 82 35.7 0
    endloop
  endfacet
  facet normal 0.2902846772544569 0.9569403357322105 0
    outer loop
      vertex 81 35.8434855532445 0
      vertex 81 35.8434855532445 3
      vertex 81.21963871193549 35.77685887838708 3
    endloop
  endfacet
  facet normal 0.09801714032956084 0.9951847266721968 0
    outer loop
      vertex 82 35.7 0
      vertex 81.21963871193549 35.77685887838708 3
      vertex 82 35.7 3
    endloop
  endfacet
  facet normal -0.09801714032956084 0.9951847266721968 0
    outer loop
      vertex 82 35.7 0
      vertex 82 35.7 3
      vertex 82.78036128806451 35.77685887838708 0
    endloop
  endfacet
  facet normal -0.2902846772544627 0.9569403357322087 0
    outer loop
      vertex 82.78036128806451 35.77685887838708 0
      vertex 82.78036128806451 35.77685887838708 3
      vertex 83.53073372946037 36.00448186995486 0
    endloop
  endfacet
  facet normal -0.47139673682600164 0.8819212643483528 0
    outer loop
      vertex 83.53073372946037 36.00448186995486 0
      vertex 83.53073372946037 36.00448186995486 3
      vertex 84.2222809320784 36.37412155078982 0
    endloop
  endfacet
  facet normal -0.6343932841636445 0.7730104533627378 0
    outer loop
      vertex 84.2222809320784 36.37412155078982 0
      vertex 84.2222809320784 36.37412155078982 3
      vertex 84.82842712474618 36.87157287525381 0
    endloop
  endfacet
  facet normal -0.7730104533627371 0.6343932841636455 0
    outer loop
      vertex 84.82842712474618 36.87157287525381 0
      vertex 84.82842712474618 36.87157287525381 3
      vertex 85.32587844921018 37.4777190679216 0
    endloop
  endfacet
  facet normal -0.8819212643483548 0.4713967368259979 0
    outer loop
      vertex 85.32587844921018 37.4777190679216 0
      vertex 85.32587844921018 37.4777190679216 3
      vertex 85.69551813004514 38.169266270539644 0
    endloop
  endfacet
  facet normal -0.9569403357322056 0.2902846772544736 0
    outer loop
      vertex 85.69551813004514 38.169266270539644 0
      vertex 85.69551813004514 38.169266270539644 3
      vertex 85.92314112161293 38.91963871193549 0
    endloop
  endfacet
  facet normal -0.9951847266721978 0.09801714032955187 0
    outer loop
      vertex 85.92314112161293 38.91963871193549 0
      vertex 85.92314112161293 38.91963871193549 3
      vertex 86 39.7 0
    endloop
  endfacet
  facet normal -0.9951847266721978 -0.09801714032955187 0
    outer loop
      vertex 86 39.7 0
      vertex 86 39.7 3
      vertex 85.92314112161293 40.480361288064515 0
    endloop
  endfacet
  facet normal -0.09801714032956084 0.9951847266721968 0
    outer loop
      vertex 82.78036128806451 35.77685887838708 0
      vertex 82 35.7 3
      vertex 82.78036128806451 35.77685887838708 3
    endloop
  endfacet
  facet normal -0.2902846772544627 0.9569403357322087 0
    outer loop
      vertex 83.53073372946037 36.00448186995486 0
      vertex 82.78036128806451 35.77685887838708 3
      vertex 83.53073372946037 36.00448186995486 3
    endloop
  endfacet
  facet normal -0.47139673682600164 0.8819212643483528 0
    outer loop
      vertex 84.2222809320784 36.37412155078982 0
      vertex 83.53073372946037 36.00448186995486 3
      vertex 84.2222809320784 36.37412155078982 3
    endloop
  endfacet
  facet normal -0.6343932841636445 0.7730104533627378 0
    outer loop
      vertex 84.82842712474618 36.87157287525381 0
      vertex 84.2222809320784 36.37412155078982 3
      vertex 84.82842712474618 36.87157287525381 3
    endloop
  endfacet
  facet normal -0.7730104533627371 0.6343932841636455 0
    outer loop
      vertex 85.32587844921018 37.4777190679216 0
      vertex 84.82842712474618 36.87157287525381 3
      vertex 85.32587844921018 37.4777190679216 3
    endloop
  endfacet
  facet normal -0.8819212643483548 0.4713967368259979 0
    outer loop
      vertex 85.69551813004514 38.169266270539644 0
      vertex 85.32587844921018 37.4777190679216 3
      vertex 85.69551813004514 38.169266270539644 3
    endloop
  endfacet
  facet normal -0.9569403357322056 0.2902846772544736 0
    outer loop
      vertex 85.92314112161293 38.91963871193549 0
      vertex 85.69551813004514 38.169266270539644 3
      vertex 85.92314112161293 38.91963871193549 3
    endloop
  endfacet
  facet normal -0.9951847266721978 0.09801714032955187 0
    outer loop
      vertex 86 39.7 0
      vertex 85.92314112161293 38.91963871193549 3
      vertex 86 39.7 3
    endloop
  endfacet
  facet normal 0.2902846772544569 -0.9569403357322105 0
    outer loop
      vertex 81 43.55651444675551 0
      vertex 81.21963871193549 43.623141121612925 0
      vertex 81 43.55651444675551 3
    endloop
  endfacet
  facet normal 0.09801714032956084 -0.9951847266721968 0
    outer loop
      vertex 81.21963871193549 43.623141121612925 0
      vertex 82 43.7 0
      vertex 82 43.7 3
    endloop
  endfacet
  facet normal 0.2902846772544569 -0.9569403357322105 0
    outer loop
      vertex 81.21963871193549 43.623141121612925 0
      vertex 81.21963871193549 43.623141121612925 3
      vertex 81 43.55651444675551 3
    endloop
  endfacet
  facet normal 0.09801714032956084 -0.9951847266721968 0
    outer loop
      vertex 81.21963871193549 43.623141121612925 0
      vertex 82 43.7 3
      vertex 81.21963871193549 43.623141121612925 3
    endloop
  endfacet
  facet normal -0.9569403357322056 -0.2902846772544736 0
    outer loop
      vertex 85.69551813004514 41.23073372946036 0
      vertex 85.92314112161293 40.480361288064515 0
      vertex 85.92314112161293 40.480361288064515 3
    endloop
  endfacet
  facet normal -0.8819212643483548 -0.4713967368259979 0
    outer loop
      vertex 85.32587844921018 41.92228093207841 0
      vertex 85.69551813004514 41.23073372946036 0
      vertex 85.69551813004514 41.23073372946036 3
    endloop
  endfacet
  facet normal -0.7730104533627371 -0.6343932841636455 0
    outer loop
      vertex 84.82842712474618 42.528427124746194 0
      vertex 85.32587844921018 41.92228093207841 0
      vertex 85.32587844921018 41.92228093207841 3
    endloop
  endfacet
  facet normal -0.09801714032956084 -0.9951847266721968 0
    outer loop
      vertex 82 43.7 0
      vertex 82.78036128806451 43.623141121612925 0
      vertex 82.78036128806451 43.623141121612925 3
    endloop
  endfacet
  facet normal -0.2902846772544627 -0.9569403357322087 0
    outer loop
      vertex 82.78036128806451 43.623141121612925 0
      vertex 83.53073372946037 43.39551813004515 0
      vertex 83.53073372946037 43.39551813004515 3
    endloop
  endfacet
  facet normal -0.6343932841636445 -0.7730104533627378 0
    outer loop
      vertex 84.2222809320784 43.02587844921018 0
      vertex 84.82842712474618 42.528427124746194 0
      vertex 84.82842712474618 42.528427124746194 3
    endloop
  endfacet
  facet normal -0.47139673682600164 -0.8819212643483528 0
    outer loop
      vertex 83.53073372946037 43.39551813004515 0
      vertex 84.2222809320784 43.02587844921018 0
      vertex 84.2222809320784 43.02587844921018 3
    endloop
  endfacet
  facet normal -0.9951847266721978 -0.09801714032955187 0
    outer loop
      vertex 86 39.7 3
      vertex 85.92314112161293 40.480361288064515 3
      vertex 85.92314112161293 40.480361288064515 0
    endloop
  endfacet
  facet normal -0.9569403357322056 -0.2902846772544736 0
    outer loop
      vertex 85.69551813004514 41.23073372946036 0
      vertex 85.92314112161293 40.480361288064515 3
      vertex 85.69551813004514 41.23073372946036 3
    endloop
  endfacet
  facet normal -0.8819212643483548 -0.4713967368259979 0
    outer loop
      vertex 85.32587844921018 41.92228093207841 0
      vertex 85.69551813004514 41.23073372946036 3
      vertex 85.32587844921018 41.92228093207841 3
    endloop
  endfacet
  facet normal -0.7730104533627371 -0.6343932841636455 0
    outer loop
      vertex 84.82842712474618 42.528427124746194 0
      vertex 85.32587844921018 41.92228093207841 3
      vertex 84.82842712474618 42.528427124746194 3
    endloop
  endfacet
  facet normal -0.09801714032956084 -0.9951847266721968 0
    outer loop
      vertex 82 43.7 0
      vertex 82.78036128806451 43.623141121612925 3
      vertex 82 43.7 3
    endloop
  endfacet
  facet normal -0.2902846772544627 -0.9569403357322087 0
    outer loop
      vertex 82.78036128806451 43.623141121612925 0
      vertex 83.53073372946037 43.39551813004515 3
      vertex 82.78036128806451 43.623141121612925 3
    endloop
  endfacet
  facet normal -0.6343932841636445 -0.7730104533627378 0
    outer loop
      vertex 84.2222809320784 43.02587844921018 0
      vertex 84.82842712474618 42.528427124746194 3
      vertex 84.2222809320784 43.02587844921018 3
    endloop
  endfacet
  facet normal -0.47139673682600164 -0.8819212643483528 0
    outer loop
      vertex 83.53073372946037 43.39551813004515 0
      vertex 84.2222809320784 43.02587844921018 3
      vertex 83.53073372946037 43.39551813004515 3
    endloop
  endfacet
  facet normal 0.2902846772544569 0.9569403357322105 0
    outer loop
      vertex -50 35.8434855532445 0
      vertex -49.78036128806451 35.77685887838708 3
      vertex -49.78036128806451 35.77685887838708 0
    endloop
  endfacet
  facet normal 0.09801714032956084 0.9951847266721968 0
    outer loop
      vertex -49.78036128806451 35.77685887838708 0
      vertex -49.78036128806451 35.77685887838708 3
      vertex -49 35.7 0
    endloop
  endfacet
  facet normal -0.09801714032956084 0.9951847266721968 0
    outer loop
      vertex -49 35.7 0
      vertex -49 35.7 3
      vertex -48.21963871193549 35.77685887838708 0
    endloop
  endfacet
  facet normal -0.2902846772544653 0.9569403357322079 0
    outer loop
      vertex -48.21963871193549 35.77685887838708 0
      vertex -48.21963871193549 35.77685887838708 3
      vertex -47.46926627053964 36.00448186995486 0
    endloop
  endfacet
  facet normal -0.4713967368259979 0.8819212643483548 0
    outer loop
      vertex -47.46926627053964 36.00448186995486 0
      vertex -47.46926627053964 36.00448186995486 3
      vertex -46.777719067921595 36.37412155078982 0
    endloop
  endfacet
  facet normal -0.63439328416364 0.7730104533627414 0
    outer loop
      vertex -46.777719067921595 36.37412155078982 0
      vertex -46.777719067921595 36.37412155078982 3
      vertex -46.17157287525381 36.87157287525381 0
    endloop
  endfacet
  facet normal -0.7730104533627414 0.63439328416364 0
    outer loop
      vertex -46.17157287525381 36.87157287525381 0
      vertex -46.17157287525381 36.87157287525381 3
      vertex -45.67412155078982 37.4777190679216 0
    endloop
  endfacet
  facet normal -0.8819212643483548 0.4713967368259979 0
    outer loop
      vertex -45.67412155078982 37.4777190679216 0
      vertex -45.67412155078982 37.4777190679216 3
      vertex -45.304481869954856 38.169266270539644 0
    endloop
  endfacet
  facet normal -0.9569403357322079 0.2902846772544653 0
    outer loop
      vertex -45.304481869954856 38.169266270539644 0
      vertex -45.304481869954856 38.169266270539644 3
      vertex -45.07685887838708 38.91963871193549 0
    endloop
  endfacet
  facet normal -0.9951847266721968 0.09801714032956084 0
    outer loop
      vertex -45.07685887838708 38.91963871193549 0
      vertex -45.07685887838708 38.91963871193549 3
      vertex -45 39.7 0
    endloop
  endfacet
  facet normal -0.9951847266721968 -0.09801714032956084 0
    outer loop
      vertex -45 39.7 0
      vertex -45 39.7 3
      vertex -45.07685887838708 40.480361288064515 0
    endloop
  endfacet
  facet normal 0.2902846772544569 0.9569403357322105 0
    outer loop
      vertex -50 35.8434855532445 0
      vertex -50 35.8434855532445 3
      vertex -49.78036128806451 35.77685887838708 3
    endloop
  endfacet
  facet normal 0.09801714032956084 0.9951847266721968 0
    outer loop
      vertex -49 35.7 0
      vertex -49.78036128806451 35.77685887838708 3
      vertex -49 35.7 3
    endloop
  endfacet
  facet normal -0.09801714032956084 0.9951847266721968 0
    outer loop
      vertex -48.21963871193549 35.77685887838708 0
      vertex -49 35.7 3
      vertex -48.21963871193549 35.77685887838708 3
    endloop
  endfacet
  facet normal -0.2902846772544653 0.9569403357322079 0
    outer loop
      vertex -47.46926627053964 36.00448186995486 0
      vertex -48.21963871193549 35.77685887838708 3
      vertex -47.46926627053964 36.00448186995486 3
    endloop
  endfacet
  facet normal -0.4713967368259979 0.8819212643483548 0
    outer loop
      vertex -46.777719067921595 36.37412155078982 0
      vertex -47.46926627053964 36.00448186995486 3
      vertex -46.777719067921595 36.37412155078982 3
    endloop
  endfacet
  facet normal -0.63439328416364 0.7730104533627414 0
    outer loop
      vertex -46.17157287525381 36.87157287525381 0
      vertex -46.777719067921595 36.37412155078982 3
      vertex -46.17157287525381 36.87157287525381 3
    endloop
  endfacet
  facet normal -0.7730104533627414 0.63439328416364 0
    outer loop
      vertex -45.67412155078982 37.4777190679216 0
      vertex -46.17157287525381 36.87157287525381 3
      vertex -45.67412155078982 37.4777190679216 3
    endloop
  endfacet
  facet normal -0.8819212643483548 0.4713967368259979 0
    outer loop
      vertex -45.304481869954856 38.169266270539644 0
      vertex -45.67412155078982 37.4777190679216 3
      vertex -45.304481869954856 38.169266270539644 3
    endloop
  endfacet
  facet normal -0.9569403357322079 0.2902846772544653 0
    outer loop
      vertex -45.07685887838708 38.91963871193549 0
      vertex -45.304481869954856 38.169266270539644 3
      vertex -45.07685887838708 38.91963871193549 3
    endloop
  endfacet
  facet normal -0.9951847266721968 0.09801714032956084 0
    outer loop
      vertex -45 39.7 0
      vertex -45.07685887838708 38.91963871193549 3
      vertex -45 39.7 3
    endloop
  endfacet
  facet normal -0.9569403357322079 -0.2902846772544653 0
    outer loop
      vertex -45.304481869954856 41.23073372946036 0
      vertex -45.07685887838708 40.480361288064515 0
      vertex -45.07685887838708 40.480361288064515 3
    endloop
  endfacet
  facet normal -0.8819212643483548 -0.4713967368259979 0
    outer loop
      vertex -45.67412155078982 41.92228093207841 0
      vertex -45.304481869954856 41.23073372946036 0
      vertex -45.304481869954856 41.23073372946036 3
    endloop
  endfacet
  facet normal -0.7730104533627414 -0.63439328416364 0
    outer loop
      vertex -46.17157287525381 42.528427124746194 0
      vertex -45.67412155078982 41.92228093207841 0
      vertex -45.67412155078982 41.92228093207841 3
    endloop
  endfacet
  facet normal 0.2902846772544569 -0.9569403357322105 0
    outer loop
      vertex -50 43.55651444675551 0
      vertex -49.78036128806451 43.623141121612925 0
      vertex -50 43.55651444675551 3
    endloop
  endfacet
  facet normal 0.09801714032956084 -0.9951847266721968 0
    outer loop
      vertex -49.78036128806451 43.623141121612925 0
      vertex -49 43.7 0
      vertex -49 43.7 3
    endloop
  endfacet
  facet normal -0.09801714032956084 -0.9951847266721968 0
    outer loop
      vertex -49 43.7 0
      vertex -48.21963871193549 43.623141121612925 0
      vertex -48.21963871193549 43.623141121612925 3
    endloop
  endfacet
  facet normal -0.2902846772544653 -0.9569403357322079 0
    outer loop
      vertex -48.21963871193549 43.623141121612925 0
      vertex -47.46926627053964 43.39551813004515 0
      vertex -47.46926627053964 43.39551813004515 3
    endloop
  endfacet
  facet normal -0.63439328416364 -0.7730104533627414 0
    outer loop
      vertex -46.777719067921595 43.02587844921018 0
      vertex -46.17157287525381 42.528427124746194 0
      vertex -46.17157287525381 42.528427124746194 3
    endloop
  endfacet
  facet normal -0.4713967368259979 -0.8819212643483548 0
    outer loop
      vertex -47.46926627053964 43.39551813004515 0
      vertex -46.777719067921595 43.02587844921018 0
      vertex -46.777719067921595 43.02587844921018 3
    endloop
  endfacet
  facet normal -0.9951847266721968 -0.09801714032956084 0
    outer loop
      vertex -45 39.7 3
      vertex -45.07685887838708 40.480361288064515 3
      vertex -45.07685887838708 40.480361288064515 0
    endloop
  endfacet
  facet normal -0.9569403357322079 -0.2902846772544653 0
    outer loop
      vertex -45.304481869954856 41.23073372946036 0
      vertex -45.07685887838708 40.480361288064515 3
      vertex -45.304481869954856 41.23073372946036 3
    endloop
  endfacet
  facet normal -0.7730104533627414 -0.63439328416364 0
    outer loop
      vertex -46.17157287525381 42.528427124746194 0
      vertex -45.67412155078982 41.92228093207841 3
      vertex -46.17157287525381 42.528427124746194 3
    endloop
  endfacet
  facet normal -0.8819212643483548 -0.4713967368259979 0
    outer loop
      vertex -45.67412155078982 41.92228093207841 0
      vertex -45.304481869954856 41.23073372946036 3
      vertex -45.67412155078982 41.92228093207841 3
    endloop
  endfacet
  facet normal 0.2902846772544569 -0.9569403357322105 0
    outer loop
      vertex -49.78036128806451 43.623141121612925 0
      vertex -49.78036128806451 43.623141121612925 3
      vertex -50 43.55651444675551 3
    endloop
  endfacet
  facet normal 0.09801714032956084 -0.9951847266721968 0
    outer loop
      vertex -49.78036128806451 43.623141121612925 0
      vertex -49 43.7 3
      vertex -49.78036128806451 43.623141121612925 3
    endloop
  endfacet
  facet normal -0.09801714032956084 -0.9951847266721968 0
    outer loop
      vertex -49 43.7 0
      vertex -48.21963871193549 43.623141121612925 3
      vertex -49 43.7 3
    endloop
  endfacet
  facet normal -0.2902846772544653 -0.9569403357322079 0
    outer loop
      vertex -48.21963871193549 43.623141121612925 0
      vertex -47.46926627053964 43.39551813004515 3
      vertex -48.21963871193549 43.623141121612925 3
    endloop
  endfacet
  facet normal -0.63439328416364 -0.7730104533627414 0
    outer loop
      vertex -46.777719067921595 43.02587844921018 0
      vertex -46.17157287525381 42.528427124746194 3
      vertex -46.777719067921595 43.02587844921018 3
    endloop
  endfacet
  facet normal -0.4713967368259979 -0.8819212643483548 0
    outer loop
      vertex -47.46926627053964 43.39551813004515 0
      vertex -46.777719067921595 43.02587844921018 3
      vertex -47.46926627053964 43.39551813004515 3
    endloop
  endfacet
  facet normal 0 0 -1
    outer loop
      vertex -14 4.3 -1
      vertex -14 5.3 -1
      vertex -11 5.3 -1
    endloop
  endfacet
  facet normal -1 0 0
    outer loop
      vertex -14 4.3 -1
      vertex -14 5.3 0
      vertex -14 5.3 -1
    endloop
  endfacet
  facet normal 0 -1 0
    outer loop
      vertex -14 4.3 -1
      vertex -11 4.3 -1
      vertex -11 4.3 0
    endloop
  endfacet
  facet normal 0 0 -1
    outer loop
      vertex -14 4.3 -1
      vertex -11 5.3 -1
      vertex -11 4.3 -1
    endloop
  endfacet
  facet normal 0 -1 0
    outer loop
      vertex -14 4.3 -1
      vertex -11 4.3 0
      vertex -14 4.3 0
    endloop
  endfacet
  facet normal -1 0 0
    outer loop
      vertex -14 4.3 -1
      vertex -14 4.3 0
      vertex -14 5.3 0
    endloop
  endfacet
  facet normal 1 0 0
    outer loop
      vertex -11 4.3 -1
      vertex -11 5.3 -1
      vertex -11 4.3 0
    endloop
  endfacet
  facet normal 1 0 0
    outer loop
      vertex -11 5.3 -1
      vertex -11 5.3 0
      vertex -11 4.3 0
    endloop
  endfacet
  facet normal 0 1 0
    outer loop
      vertex -14 5.3 -1
      vertex -14 5.3 0
      vertex -11 5.3 -1
    endloop
  endfacet
  facet normal 0 1 0
    outer loop
      vertex -11 5.3 -1
      vertex -14 5.3 0
      vertex -11 5.3 0
    endloop
  endfacet
  facet normal 0 -1 0
    outer loop
      vertex -14 74.7 -1
      vertex -11 74.7 -1
      vertex -11 74.7 0
    endloop
  endfacet
  facet normal 0 -1 0
    outer loop
      vertex -14 74.7 -1
      vertex -11 74.7 0
      vertex -14 74.7 0
    endloop
  endfacet
  facet normal 0 0 -1
    outer loop
      vertex -14 74.7 -1
      vertex -14 75.7 -1
      vertex -11 75.7 -1
    endloop
  endfacet
  facet normal -1 0 0
    outer loop
      vertex -14 74.7 -1
      vertex -14 75.7 0
      vertex -14 75.7 -1
    endloop
  endfacet
  facet normal 0 1 0
    outer loop
      vertex -14 75.7 -1
      vertex -14 75.7 0
      vertex -11 75.7 -1
    endloop
  endfacet
  facet normal 0 0 -1
    outer loop
      vertex -14 74.7 -1
      vertex -11 75.7 -1
      vertex -11 74.7 -1
    endloop
  endfacet
  facet normal -1 0 0
    outer loop
      vertex -14 74.7 -1
      vertex -14 74.7 0
      vertex -14 75.7 0
    endloop
  endfacet
  facet normal 0 1 0
    outer loop
      vertex -11 75.7 -1
      vertex -14 75.7 0
      vertex -11 75.7 0
    endloop
  endfacet
  facet normal 1 0 0
    outer loop
      vertex -11 74.7 -1
      vertex -11 75.7 -1
      vertex -11 74.7 0
    endloop
  endfacet
  facet normal 1 0 0
    outer loop
      vertex -11 75.7 -1
      vertex -11 75.7 0
      vertex -11 74.7 0
    endloop
  endfacet
  facet normal -1 0 0
    outer loop
      vertex 119 4.3 -1
      vertex 119 5.3 0
      vertex 119 5.3 -1
    endloop
  endfacet
  facet normal 0 0 -1
    outer loop
      vertex 119 4.3 -1
      vertex 119 5.3 -1
      vertex 122 5.3 -1
    endloop
  endfacet
  facet normal -1 0 0
    outer loop
      vertex 119 4.3 -1
      vertex 119 4.3 0
      vertex 119 5.3 0
    endloop
  endfacet
  facet normal 0 -1 0
    outer loop
      vertex 119 4.3 -1
      vertex 122 4.3 0
      vertex 119 4.3 0
    endloop
  endfacet
  facet normal 0 -1 0
    outer loop
      vertex 119 4.3 -1
      vertex 122 4.3 -1
      vertex 122 4.3 0
    endloop
  endfacet
  facet normal 0 0 -1
    outer loop
      vertex 119 4.3 -1
      vertex 122 5.3 -1
      vertex 122 4.3 -1
    endloop
  endfacet
  facet normal 1 0 0
    outer loop
      vertex 122 4.3 -1
      vertex 122 5.3 -1
      vertex 122 4.3 0
    endloop
  endfacet
  facet normal 1 0 0
    outer loop
      vertex 122 5.3 -1
      vertex 122 5.3 0
      vertex 122 4.3 0
    endloop
  endfacet
  facet normal 0 1 0
    outer loop
      vertex 119 5.3 -1
      vertex 119 5.3 0
      vertex 122 5.3 -1
    endloop
  endfacet
  facet normal 0 1 0
    outer loop
      vertex 122 5.3 -1
      vertex 119 5.3 0
      vertex 122 5.3 0
    endloop
  endfacet
  facet normal 0 -1 0
    outer loop
      vertex 119 74.7 -1
      vertex 122 74.7 0
      vertex 119 74.7 0
    endloop
  endfacet
  facet normal 0 -1 0
    outer loop
      vertex 119 74.7 -1
      vertex 122 74.7 -1
      vertex 122 74.7 0
    endloop
  endfacet
  facet normal -1 0 0
    outer loop
      vertex 119 74.7 -1
      vertex 119 75.7 0
      vertex 119 75.7 -1
    endloop
  endfacet
  facet normal 0 0 -1
    outer loop
      vertex 119 74.7 -1
      vertex 119 75.7 -1
      vertex 122 75.7 -1
    endloop
  endfacet
  facet normal 0 1 0
    outer loop
      vertex 119 75.7 -1
      vertex 119 75.7 0
      vertex 122 75.7 -1
    endloop
  endfacet
  facet normal -1 0 0
    outer loop
      vertex 119 74.7 -1
      vertex 119 74.7 0
      vertex 119 75.7 0
    endloop
  endfacet
  facet normal 0 0 -1
    outer loop
      vertex 119 74.7 -1
      vertex 122 75.7 -1
      vertex 122 74.7 -1
    endloop
  endfacet
  facet normal 1 0 0
    outer loop
      vertex 122 74.7 -1
      vertex 122 75.7 -1
      vertex 122 74.7 0
    endloop
  endfacet
  facet normal 0 1 0
    outer loop
      vertex 122 75.7 -1
      vertex 119 75.7 0
      vertex 122 75.7 0
    endloop
  endfacet
  facet normal 1 0 0
    outer loop
      vertex 122 75.7 -1
      vertex 122 75.7 0
      vertex 122 74.7 0
    endloop
  endfacet
endsolid OpenSCAD_Model
